<svg width="800" height="800" viewBox="0 0 800 800" version="1.1" xmlns="http://www.w3.org/2000/svg" xmlns:xlink="http://www.w3.org/1999/xlink" xmlns:figma="http://www.figma.com/figma/ns">
<title>Group</title>
<desc>Created using Figma</desc>
<g id="Canvas" transform="translate(-1080 -755)" figma:type="canvas">
<g id="Group" style="mix-blend-mode:normal;" figma:type="frame">
<g id="Ellipse 3" style="mix-blend-mode:normal;" figma:type="ellipse">
<use xlink:href="#path0_fill" transform="translate(1080 755)" fill="#FF3366" style="mix-blend-mode:normal;"/>
<mask id="mask0_outline_ins">
<use xlink:href="#path0_fill" fill="white" transform="translate(1080 755)"/>
</mask>
<g mask="url(#mask0_outline_ins)">
<use xlink:href="#path1_stroke_2x" transform="translate(1080 755)" fill="#1FD4B8" style="mix-blend-mode:normal;"/>
</g>
</g>
<g id="technology" style="mix-blend-mode:normal;" figma:type="text">
<use xlink:href="#path2_fill" transform="translate(1424 1459)" fill="#4F4F4F" style="mix-blend-mode:normal;"/>
</g>
<g id="I am planning to build project XYZ. Should I go with option A, B or C?" style="mix-blend-mode:normal;" figma:type="text">
<use xlink:href="#path3_fill" transform="translate(1170.82 1038.09)" fill="#FFFFFF" style="mix-blend-mode:normal;"/>
</g>
<g id="26 m" style="mix-blend-mode:normal;" figma:type="text">
<use xlink:href="#path4_fill" transform="translate(1455.85 1487.37)" fill="#4F4F4F" style="mix-blend-mode:normal;"/>
</g>
<g id="tag" style="mix-blend-mode:normal;" figma:type="frame">
<g id="Subtract" style="mix-blend-mode:normal;" figma:type="vector-operation">
<use xlink:href="#path5_fill" transform="matrix(0.982289 0.18737 -0.18737 0.982289 1391.88 1454.31)" fill="#F2F2F2" style="mix-blend-mode:normal;"/>
<mask id="mask1_outline_ins">
<use xlink:href="#path5_fill" fill="white" transform="matrix(0.982289 0.18737 -0.18737 0.982289 1391.88 1454.31)"/>
</mask>
<g mask="url(#mask1_outline_ins)">
<use xlink:href="#path6_stroke_2x" transform="matrix(0.982289 0.18737 -0.18737 0.982289 1391.88 1454.31)" fill="#828282" style="mix-blend-mode:normal;"/>
</g>
</g>
<g id="Vector" style="mix-blend-mode:normal;" figma:type="vector">
<use xlink:href="#path7_stroke" transform="matrix(0.982289 0.18737 -0.18737 0.982289 1413.21 1449.57)" fill="#828282" style="mix-blend-mode:normal;"/>
</g>
</g>
</g>
</g>
<defs>
<path id="path0_fill" d="M 800 400C 800 620.914 620.914 800 400 800C 179.086 800 0 620.914 0 400C 0 179.086 179.086 0 400 0C 620.914 0 800 179.086 800 400Z"/>
<path id="path1_stroke_2x" d="M 780 400C 780 609.868 609.868 780 400 780L 400 820C 631.96 820 820 631.96 820 400L 780 400ZM 400 780C 190.132 780 20 609.868 20 400L -20 400C -20 631.96 168.04 820 400 820L 400 780ZM 20 400C 20 190.132 190.132 20 400 20L 400 -20C 168.04 -20 -20 168.04 -20 400L 20 400ZM 400 20C 609.868 20 780 190.132 780 400L 820 400C 820 168.04 631.96 -20 400 -20L 400 20Z"/>
<path id="path2_fill" d="M 6.6 21.856C 6.6 22.048 5.928 22.144 4.584 22.144C 2.984 22.08 2.184 21.976 2.184 21.832L 2.184 13.336L 0.96 13.336C 0.64 13.336 0.48 12.784 0.48 11.68C 0.48 11.392 0.504 11.04 0.552 10.624C 0.616 10.208 0.736 10 0.912 10L 2.184 10L 2.184 7.888C 2.184 7.568 2.856 7.408 4.2 7.408C 5.56 7.408 6.24 7.536 6.24 7.792L 6.24 9.328L 6.264 10L 8.304 10C 8.576 10 8.712 10.56 8.712 11.68C 8.712 12.8 8.576 13.36 8.304 13.36L 6.6 13.36L 6.6 21.856ZM 18.9879 21.352C 17.9799 21.944 16.6839 22.24 15.0999 22.24C 13.5159 22.24 12.1799 21.704 11.0919 20.632C 10.0039 19.544 9.45994 18.048 9.45994 16.144C 9.45994 14.224 9.97994 12.68 11.0199 11.512C 12.0759 10.344 13.4039 9.76 15.0039 9.76C 16.6039 9.76 17.8359 10.168 18.6999 10.984C 19.5799 11.8 20.0199 12.792 20.0199 13.96C 20.0199 16.552 18.5319 17.848 15.5559 17.848L 13.8999 17.848C 13.8999 18.328 14.0279 18.664 14.2839 18.856C 14.5559 19.032 14.9479 19.12 15.4599 19.12C 16.5799 19.12 17.6439 18.864 18.6519 18.352C 18.6679 18.336 18.7399 18.448 18.8679 18.688C 19.2519 19.376 19.4439 19.96 19.4439 20.44C 19.4439 20.904 19.2919 21.208 18.9879 21.352ZM 15.9879 14.416C 15.9879 13.744 15.6599 13.408 15.0039 13.408C 14.6999 13.408 14.4359 13.504 14.2119 13.696C 14.0039 13.872 13.8999 14.136 13.8999 14.488L 13.8999 15.232L 15.1959 15.232C 15.7239 15.232 15.9879 14.96 15.9879 14.416ZM 25.5238 16.048C 25.5238 17.616 26.1158 18.4 27.2998 18.4C 28.0678 18.4 28.7078 18.248 29.2198 17.944C 29.4598 17.944 29.6518 18.36 29.7958 19.192C 29.9558 20.008 30.0358 20.568 30.0358 20.872C 30.0358 21.16 29.9958 21.352 29.9158 21.448C 29.0678 21.976 27.9078 22.24 26.4358 22.24C 24.9638 22.24 23.7078 21.696 22.6678 20.608C 21.6438 19.504 21.1318 18.008 21.1318 16.12C 21.1318 14.216 21.6358 12.68 22.6438 11.512C 23.6678 10.344 25.0198 9.76 26.6998 9.76C 28.3958 9.76 29.5718 10.168 30.2278 10.984C 30.3718 11.16 30.4438 11.424 30.4438 11.776C 30.4438 12.112 30.3798 12.528 30.2518 13.024C 29.9638 14.048 29.5878 14.64 29.1238 14.8C 29.0598 14.816 28.9638 14.824 28.8358 14.824C 28.7238 14.824 28.5798 14.728 28.4038 14.536C 27.7798 13.912 27.2758 13.6 26.8918 13.6C 26.5238 13.6 26.2038 13.792 25.9318 14.176C 25.6598 14.56 25.5238 15.184 25.5238 16.048ZM 35.7677 21.832C 35.7677 21.976 35.0957 22.048 33.7517 22.048C 32.4237 22.048 31.7597 21.936 31.7597 21.712L 31.7597 5.272C 31.7597 5.16 32.0077 5.08 32.5037 5.032C 32.9997 4.984 33.4157 4.96 33.7517 4.96C 35.0957 4.96 35.7677 5.104 35.7677 5.392L 35.7677 10.192C 36.6637 9.92 37.3437 9.784 37.8077 9.784C 39.0237 9.784 39.9837 10.112 40.6877 10.768C 41.3917 11.408 41.7437 12.608 41.7437 14.368L 41.7437 21.808C 41.7437 21.952 41.1197 22.024 39.8717 22.024C 38.4637 21.976 37.7597 21.896 37.7597 21.784L 37.7597 14.728C 37.7597 13.944 37.5037 13.552 36.9917 13.552C 36.6397 13.552 36.2317 13.72 35.7677 14.056L 35.7677 21.832ZM 48.7991 21.856C 48.7991 21.968 48.2231 22.024 47.0711 22.024C 45.4711 21.976 44.6711 21.888 44.6711 21.76L 44.6711 13.984L 44.0471 13.984C 43.6311 13.984 43.3591 13.632 43.2311 12.928C 43.1991 12.72 43.1831 12.512 43.1831 12.304C 43.1831 11.808 43.2791 11.312 43.4711 10.816C 43.7591 10.112 44.2071 9.76 44.8151 9.76C 45.4231 9.76 45.9671 9.904 46.4471 10.192C 46.9271 10.48 47.2471 10.768 47.4071 11.056C 48.4151 10.192 49.6151 9.76 51.0071 9.76C 52.3991 9.76 53.4071 10.136 54.0311 10.888C 54.6551 11.64 54.9671 12.872 54.9671 14.584L 54.9671 21.784C 54.9671 21.976 54.2791 22.072 52.9031 22.072C 51.5431 22.072 50.8631 21.976 50.8631 21.784L 50.8631 14.848C 50.8631 14.048 50.5831 13.648 50.0231 13.648C 49.8631 13.648 49.6391 13.72 49.3511 13.864C 49.0631 13.992 48.8791 14.088 48.7991 14.152L 48.7991 21.856ZM 58.0339 20.584C 57.0419 19.48 56.5459 17.952 56.5459 16C 56.5459 14.048 57.0419 12.52 58.0339 11.416C 59.0419 10.312 60.3939 9.76 62.0899 9.76C 63.7859 9.76 65.1299 10.312 66.1219 11.416C 67.1139 12.52 67.6099 14.048 67.6099 16C 67.6099 17.952 67.1139 19.48 66.1219 20.584C 65.1299 21.688 63.7859 22.24 62.0899 22.24C 60.3939 22.24 59.0419 21.688 58.0339 20.584ZM 62.0899 13.768C 61.1939 13.768 60.7459 14.504 60.7459 15.976C 60.7459 17.448 61.1939 18.184 62.0899 18.184C 63.0019 18.184 63.4579 17.448 63.4579 15.976C 63.4579 14.504 63.0019 13.768 62.0899 13.768ZM 73.6746 21.808C 73.6746 21.952 72.8586 22.024 71.2266 22.024C 69.9466 22.008 69.3066 21.944 69.3066 21.832L 69.3066 5.488C 69.3066 5.248 70.0826 5.128 71.6346 5.128C 72.9946 5.176 73.6746 5.256 73.6746 5.368L 73.6746 21.808ZM 76.8776 20.584C 75.8856 19.48 75.3896 17.952 75.3896 16C 75.3896 14.048 75.8856 12.52 76.8776 11.416C 77.8856 10.312 79.2376 9.76 80.9336 9.76C 82.6296 9.76 83.9736 10.312 84.9656 11.416C 85.9576 12.52 86.4536 14.048 86.4536 16C 86.4536 17.952 85.9576 19.48 84.9656 20.584C 83.9736 21.688 82.6296 22.24 80.9336 22.24C 79.2376 22.24 77.8856 21.688 76.8776 20.584ZM 80.9336 13.768C 80.0376 13.768 79.5896 14.504 79.5896 15.976C 79.5896 17.448 80.0376 18.184 80.9336 18.184C 81.8456 18.184 82.3016 17.448 82.3016 15.976C 82.3016 14.504 81.8456 13.768 80.9336 13.768ZM 92.5663 22C 91.0143 22 89.8143 21.504 88.9663 20.512C 88.1183 19.504 87.6943 18.024 87.6943 16.072C 87.6943 14.104 88.2463 12.568 89.3503 11.464C 90.4703 10.344 91.9503 9.784 93.7903 9.784C 95.6463 9.784 97.1743 10.192 98.3743 11.008L 98.3743 22.96C 98.3743 24.144 97.8943 25.048 96.9343 25.672C 95.9743 26.312 94.7423 26.632 93.2383 26.632C 91.7343 26.632 90.3903 26.44 89.2063 26.056C 89.0463 25.672 88.9663 25.328 88.9663 25.024C 88.9663 24 89.1343 23.248 89.4703 22.768C 90.5423 23.232 91.6863 23.464 92.9023 23.464C 93.7823 23.464 94.2223 23.152 94.2223 22.528L 94.2223 21.808C 93.5343 21.936 92.9823 22 92.5663 22ZM 93.6703 13.696C 92.5983 13.696 92.0623 14.504 92.0623 16.12C 92.0623 17.128 92.2703 17.784 92.6863 18.088C 92.9583 18.296 93.2303 18.4 93.5023 18.4C 93.7743 18.4 94.0143 18.376 94.2223 18.328L 94.2223 13.768C 94.0303 13.72 93.8463 13.696 93.6703 13.696ZM 99.6853 10.12C 99.6853 9.944 100.413 9.856 101.869 9.856C 103.341 9.856 104.101 9.936 104.149 10.096L 105.877 15.76L 107.533 10.048C 107.597 9.92 108.093 9.856 109.021 9.856C 111.149 9.856 112.165 9.96 112.069 10.168L 106.429 26.224C 106.413 26.32 105.973 26.368 105.109 26.368C 104.261 26.368 103.469 26.336 102.733 26.272C 101.997 26.224 101.645 26.16 101.677 26.08L 103.765 21.04L 99.6853 10.12Z"/>
<path id="path3_fill" d="M 7.424 47.992L 7.424 25.208L 2.88 25.208C 2.15467 25.208 1.64267 24.2907 1.344 22.456C 1.216 21.56 1.152 20.6427 1.152 19.704C 1.152 18.7653 1.216 17.848 1.344 16.952C 1.64267 15.1173 2.15467 14.2 2.88 14.2L 24.384 14.2C 25.1093 14.2 25.6 15.1173 25.856 16.952C 26.0267 17.848 26.112 18.7653 26.112 19.704C 26.112 20.6427 26.0267 21.56 25.856 22.456C 25.6 24.2907 25.1093 25.208 24.384 25.208L 20.096 25.208L 20.096 47.992L 24.576 47.992C 25.3013 47.992 25.8133 48.9093 26.112 50.744C 26.2827 51.64 26.368 52.5573 26.368 53.496C 26.368 54.4347 26.2827 55.352 26.112 56.248C 25.8133 58.0827 25.3013 59 24.576 59L 3.008 59C 2.28267 59 1.792 58.0827 1.536 56.248C 1.36533 55.352 1.28 54.4347 1.28 53.496C 1.28 52.5573 1.36533 51.64 1.536 50.744C 1.792 48.9093 2.28267 47.992 3.008 47.992L 7.424 47.992ZM 46.412 35.768C 45.2173 33.6347 44.62 31.9067 44.62 30.584C 44.62 29.2187 44.9827 28.344 45.708 27.96C 48.14 26.8933 51.468 26.36 55.692 26.36C 59.9587 26.36 62.9667 27.3627 64.716 29.368C 66.4653 31.3307 67.34 34.2533 67.34 38.136L 67.34 48.248L 69.516 48.248C 70.2413 48.248 70.796 48.6747 71.18 49.528C 71.6067 50.3813 71.82 51.5547 71.82 53.048C 71.82 54.5413 71.436 56.0133 70.668 57.464C 69.9427 58.9147 68.94 59.64 67.66 59.64C 65.356 59.64 63.5 59.0213 62.092 57.784C 61.452 57.272 60.9613 56.6533 60.62 55.928C 58.6573 58.4027 55.6067 59.64 51.468 59.64C 48.3533 59.64 45.7293 58.5307 43.596 56.312C 41.4627 54.0933 40.396 51.4693 40.396 48.44C 40.396 41.4853 44.556 38.008 52.876 38.008L 56.396 38.008L 56.396 37.368C 56.396 36.2587 56.204 35.5547 55.82 35.256C 55.4787 34.9147 54.6467 34.744 53.324 34.744C 51.7027 34.744 49.3987 35.0853 46.412 35.768ZM 51.532 47.544C 51.532 48.4827 51.788 49.208 52.3 49.72C 52.812 50.1893 53.452 50.424 54.22 50.424C 55.0307 50.424 55.756 50.104 56.396 49.464L 56.396 44.536L 54.604 44.536C 52.556 44.536 51.532 45.5387 51.532 47.544ZM 104.434 58.68C 104.434 58.9787 102.6 59.128 98.9305 59.128C 95.3038 59.128 93.4905 58.936 93.4905 58.552L 93.4905 39.928C 93.4905 37.7947 92.7865 36.728 91.3785 36.728C 90.6532 36.728 89.6932 37.1973 88.4985 38.136L 88.4985 58.616C 88.4985 59.0427 86.6638 59.256 82.9945 59.256C 79.3678 59.256 77.5545 59.0213 77.5545 58.552L 77.5545 37.624L 75.9545 37.624C 74.5465 37.624 73.8425 36.152 73.8425 33.208C 73.8425 31.8853 74.0985 30.5413 74.6105 29.176C 75.2932 27.2987 76.4025 26.36 77.9385 26.36C 79.4745 26.36 80.9465 26.7653 82.3545 27.576C 83.8052 28.3867 84.6798 29.1547 84.9785 29.88C 87.6238 27.5333 90.5465 26.36 93.7465 26.36C 96.9892 26.36 99.5918 27.3627 101.555 29.368C 103.858 27.3627 106.632 26.36 109.875 26.36C 116.915 26.36 120.435 30.648 120.435 39.224L 120.435 58.68C 120.435 58.9787 118.6 59.128 114.931 59.128C 111.304 59.128 109.491 58.936 109.491 58.552L 109.491 39.928C 109.491 37.7947 108.786 36.728 107.379 36.728C 106.611 36.728 105.629 37.1973 104.434 38.136L 104.434 58.68ZM 151.702 70.648C 151.702 70.9467 149.868 71.096 146.198 71.096C 142.572 71.096 140.759 70.9467 140.759 70.648L 140.759 37.688L 138.582 37.688C 137.559 37.688 136.855 36.7493 136.47 34.872C 136.342 34.2747 136.278 33.5067 136.278 32.568C 136.278 31.6293 136.577 30.52 137.174 29.24C 138.028 27.3627 139.393 26.424 141.271 26.424C 142.508 26.424 143.639 26.7227 144.663 27.32C 145.729 27.8747 146.455 28.408 146.839 28.92C 147.265 29.3893 147.479 29.6667 147.479 29.752C 150.337 27.5333 153.431 26.424 156.758 26.424C 160.087 26.424 162.945 27.7253 165.334 30.328C 167.724 32.888 168.918 36.8773 168.918 42.296C 168.918 47.672 167.724 51.8533 165.334 54.84C 162.945 57.784 159.916 59.256 156.247 59.256C 154.583 59.256 153.068 59.1707 151.702 59L 151.702 70.648ZM 154.326 37.624C 153.601 37.624 152.897 37.8587 152.215 38.328L 152.215 49.656C 152.94 49.7413 153.516 49.784 153.942 49.784C 154.412 49.784 154.774 49.784 155.031 49.784C 156.78 49.6133 157.654 47.3733 157.654 43.064C 157.654 39.4373 156.545 37.624 154.326 37.624ZM 185.09 58.488C 185.09 58.872 182.915 59.064 178.562 59.064C 175.149 59.0213 173.443 58.8507 173.443 58.552L 173.443 14.968C 173.443 14.328 175.512 14.008 179.651 14.008C 183.277 14.136 185.09 14.3493 185.09 14.648L 185.09 58.488ZM 194.912 35.768C 193.717 33.6347 193.12 31.9067 193.12 30.584C 193.12 29.2187 193.483 28.344 194.208 27.96C 196.64 26.8933 199.968 26.36 204.192 26.36C 208.459 26.36 211.467 27.3627 213.216 29.368C 214.965 31.3307 215.84 34.2533 215.84 38.136L 215.84 48.248L 218.016 48.248C 218.741 48.248 219.296 48.6747 219.68 49.528C 220.107 50.3813 220.32 51.5547 220.32 53.048C 220.32 54.5413 219.936 56.0133 219.168 57.464C 218.443 58.9147 217.44 59.64 216.16 59.64C 213.856 59.64 212 59.0213 210.592 57.784C 209.952 57.272 209.461 56.6533 209.12 55.928C 207.157 58.4027 204.107 59.64 199.968 59.64C 196.853 59.64 194.229 58.5307 192.096 56.312C 189.963 54.0933 188.896 51.4693 188.896 48.44C 188.896 41.4853 193.056 38.008 201.376 38.008L 204.896 38.008L 204.896 37.368C 204.896 36.2587 204.704 35.5547 204.32 35.256C 203.979 34.9147 203.147 34.744 201.824 34.744C 200.203 34.744 197.899 35.0853 194.912 35.768ZM 200.032 47.544C 200.032 48.4827 200.288 49.208 200.8 49.72C 201.312 50.1893 201.952 50.424 202.72 50.424C 203.531 50.424 204.256 50.104 204.896 49.464L 204.896 44.536L 203.104 44.536C 201.056 44.536 200.032 45.5387 200.032 47.544ZM 237.319 58.616C 237.319 58.9147 235.783 59.064 232.71 59.064C 228.444 58.936 226.311 58.7013 226.311 58.36L 226.311 37.624L 224.647 37.624C 223.537 37.624 222.812 36.6853 222.47 34.808C 222.385 34.2533 222.342 33.6987 222.342 33.144C 222.342 31.8213 222.599 30.4987 223.111 29.176C 223.878 27.2987 225.073 26.36 226.694 26.36C 228.316 26.36 229.767 26.744 231.047 27.512C 232.326 28.28 233.18 29.048 233.606 29.816C 236.295 27.512 239.494 26.36 243.206 26.36C 246.919 26.36 249.607 27.3627 251.271 29.368C 252.934 31.3733 253.766 34.6587 253.766 39.224L 253.766 58.424C 253.766 58.936 251.932 59.192 248.263 59.192C 244.636 59.192 242.823 58.936 242.823 58.424L 242.823 39.928C 242.823 37.7947 242.076 36.728 240.583 36.728C 240.156 36.728 239.559 36.92 238.791 37.304C 238.022 37.6453 237.532 37.9013 237.319 38.072L 237.319 58.616ZM 272.569 58.616C 272.569 58.9147 271.033 59.064 267.96 59.064C 263.694 58.936 261.561 58.7013 261.561 58.36L 261.561 37.624L 259.897 37.624C 258.787 37.624 258.062 36.6853 257.72 34.808C 257.635 34.2533 257.592 33.6987 257.592 33.144C 257.592 31.8213 257.849 30.4987 258.361 29.176C 259.128 27.2987 260.323 26.36 261.944 26.36C 263.566 26.36 265.017 26.744 266.297 27.512C 267.576 28.28 268.43 29.048 268.856 29.816C 271.545 27.512 274.744 26.36 278.456 26.36C 282.169 26.36 284.857 27.3627 286.521 29.368C 288.184 31.3733 289.016 34.6587 289.016 39.224L 289.016 58.424C 289.016 58.936 287.182 59.192 283.513 59.192C 279.886 59.192 278.073 58.936 278.073 58.424L 278.073 39.928C 278.073 37.7947 277.326 36.728 275.833 36.728C 275.406 36.728 274.809 36.92 274.041 37.304C 273.272 37.6453 272.782 37.9013 272.569 38.072L 272.569 58.616ZM 306.155 58.616C 306.155 58.9573 304.192 59.128 300.267 59.128C 296.384 59.128 294.443 58.9787 294.443 58.68L 294.443 27.256C 294.443 26.9573 296.384 26.808 300.267 26.808C 304.192 26.808 306.155 26.936 306.155 27.192L 306.155 58.616ZM 306.155 23.416C 306.155 23.7147 304.192 23.864 300.267 23.864C 296.384 23.864 294.443 23.736 294.443 23.48L 294.443 14.264C 294.443 13.8373 296.384 13.624 300.267 13.624C 304.192 13.624 306.155 13.752 306.155 14.008L 306.155 23.416ZM 325.319 58.616C 325.319 58.9147 323.783 59.064 320.71 59.064C 316.444 58.936 314.311 58.7013 314.311 58.36L 314.311 37.624L 312.647 37.624C 311.537 37.624 310.812 36.6853 310.47 34.808C 310.385 34.2533 310.342 33.6987 310.342 33.144C 310.342 31.8213 310.599 30.4987 311.111 29.176C 311.878 27.2987 313.073 26.36 314.694 26.36C 316.316 26.36 317.767 26.744 319.047 27.512C 320.326 28.28 321.18 29.048 321.606 29.816C 324.295 27.512 327.494 26.36 331.206 26.36C 334.919 26.36 337.607 27.3627 339.271 29.368C 340.934 31.3733 341.766 34.6587 341.766 39.224L 341.766 58.424C 341.766 58.936 339.932 59.192 336.263 59.192C 332.636 59.192 330.823 58.936 330.823 58.424L 330.823 39.928C 330.823 37.7947 330.076 36.728 328.583 36.728C 328.156 36.728 327.559 36.92 326.791 37.304C 326.022 37.6453 325.532 37.9013 325.319 38.072L 325.319 58.616ZM 358.969 59C 354.83 59 351.63 57.6773 349.369 55.032C 347.107 52.344 345.977 48.3973 345.977 43.192C 345.977 37.944 347.448 33.848 350.392 30.904C 353.379 27.9173 357.326 26.424 362.233 26.424C 367.182 26.424 371.257 27.512 374.456 29.688L 374.456 61.56C 374.456 64.7173 373.177 67.128 370.617 68.792C 368.056 70.4987 364.771 71.352 360.76 71.352C 356.75 71.352 353.166 70.84 350.009 69.816C 349.582 68.792 349.369 67.8747 349.369 67.064C 349.369 64.3333 349.817 62.328 350.713 61.048C 353.571 62.2853 356.622 62.904 359.865 62.904C 362.211 62.904 363.385 62.072 363.385 60.408L 363.385 58.488C 361.55 58.8293 360.078 59 358.969 59ZM 361.913 36.856C 359.054 36.856 357.625 39.0107 357.625 43.32C 357.625 46.008 358.179 47.7573 359.288 48.568C 360.014 49.1227 360.739 49.4 361.465 49.4C 362.19 49.4 362.83 49.336 363.385 49.208L 363.385 37.048C 362.872 36.92 362.382 36.856 361.913 36.856ZM 406.975 58.616C 406.975 59.128 405.183 59.384 401.599 59.384C 397.332 59.2133 395.199 58.936 395.199 58.552L 395.199 35.896L 391.935 35.896C 391.082 35.896 390.655 34.424 390.655 31.48C 390.655 30.712 390.719 29.7733 390.847 28.664C 391.018 27.5547 391.338 27 391.807 27L 395.199 27L 395.199 21.368C 395.199 20.5147 396.991 20.088 400.575 20.088C 404.202 20.088 406.015 20.4293 406.015 21.112L 406.015 25.208L 406.079 27L 411.519 27C 412.244 27 412.607 28.4933 412.607 31.48C 412.607 34.4667 412.244 35.96 411.519 35.96L 406.975 35.96L 406.975 58.616ZM 418.569 55.224C 415.924 52.28 414.602 48.2053 414.602 43C 414.602 37.7947 415.924 33.72 418.569 30.776C 421.257 27.832 424.863 26.36 429.385 26.36C 433.908 26.36 437.492 27.832 440.138 30.776C 442.783 33.72 444.105 37.7947 444.105 43C 444.105 48.2053 442.783 52.28 440.138 55.224C 437.492 58.168 433.908 59.64 429.385 59.64C 424.863 59.64 421.257 58.168 418.569 55.224ZM 429.385 37.048C 426.996 37.048 425.802 39.0107 425.802 42.936C 425.802 46.8613 426.996 48.824 429.385 48.824C 431.817 48.824 433.034 46.8613 433.034 42.936C 433.034 39.0107 431.817 37.048 429.385 37.048ZM 461.013 14.392C 461.013 13.88 462.847 13.624 466.517 13.624C 470.229 13.624 472.085 13.9013 472.085 14.456L 472.085 26.872C 473.919 26.5307 475.221 26.36 475.989 26.36C 484.948 26.36 489.428 31.5013 489.428 41.784C 489.428 47.5013 488.042 51.9173 485.268 55.032C 482.538 58.104 478.634 59.64 473.557 59.64C 468.522 59.64 464.34 58.5093 461.013 56.248L 461.013 14.392ZM 474.197 36.344C 473.471 36.344 472.767 36.5787 472.085 37.048L 472.085 49.272C 472.682 49.528 473.3 49.656 473.941 49.656C 474.623 49.656 475.306 49.4 475.989 48.888C 477.183 48.0347 477.781 46.0507 477.781 42.936C 477.781 38.5413 476.586 36.344 474.197 36.344ZM 493.622 27.384C 493.622 26.9147 495.457 26.68 499.127 26.68C 502.796 26.68 504.63 26.9147 504.63 27.384L 504.63 46.072C 504.63 48.2053 505.313 49.272 506.679 49.272C 507.702 49.272 508.854 48.824 510.135 47.928L 510.135 27.384C 510.135 26.9573 511.948 26.744 515.574 26.744C 519.201 26.744 521.014 26.9573 521.014 27.384L 521.014 48.376L 522.678 48.376C 524.129 48.376 524.854 49.7627 524.854 52.536C 524.854 53.944 524.556 55.3733 523.958 56.824C 523.105 58.7013 521.953 59.64 520.503 59.64C 517.644 59.64 515.532 58.4667 514.167 56.12L 514.103 56.184C 511.5 58.488 508.705 59.64 505.719 59.64C 501.58 59.64 498.529 58.616 496.567 56.568C 494.604 54.4773 493.622 51.0427 493.622 46.264L 493.622 27.384ZM 540.467 58.616C 540.467 58.9573 538.504 59.128 534.579 59.128C 530.696 59.128 528.755 58.9787 528.755 58.68L 528.755 27.256C 528.755 26.9573 530.696 26.808 534.579 26.808C 538.504 26.808 540.467 26.936 540.467 27.192L 540.467 58.616ZM 540.467 23.416C 540.467 23.7147 538.504 23.864 534.579 23.864C 530.696 23.864 528.755 23.736 528.755 23.48L 528.755 14.264C 528.755 13.8373 530.696 13.624 534.579 13.624C 538.504 13.624 540.467 13.752 540.467 14.008L 540.467 23.416ZM 557.903 58.488C 557.903 58.872 555.727 59.064 551.375 59.064C 547.962 59.0213 546.255 58.8507 546.255 58.552L 546.255 14.968C 546.255 14.328 548.324 14.008 552.463 14.008C 556.09 14.136 557.903 14.3493 557.903 14.648L 557.903 58.488ZM 579.885 14.584C 579.885 13.944 581.57 13.624 584.941 13.624C 586.093 13.624 587.415 13.7093 588.909 13.88C 590.444 14.008 591.212 14.2 591.212 14.456L 591.212 48.184L 593.452 48.184C 594.519 48.184 595.223 49.144 595.564 51.064C 595.65 51.6187 595.693 52.3867 595.693 53.368C 595.693 54.3067 595.394 55.4587 594.797 56.824C 593.943 58.7013 592.578 59.64 590.701 59.64C 589.292 59.64 588.034 59.3627 586.924 58.808C 585.858 58.2533 585.132 57.6773 584.749 57.08L 584.173 56.248C 581.826 58.5093 578.882 59.64 575.34 59.64C 571.799 59.64 568.77 58.168 566.253 55.224C 563.735 52.28 562.477 48.184 562.477 42.936C 562.477 37.6453 563.799 33.5707 566.444 30.712C 569.09 27.8107 572.396 26.36 576.365 26.36C 577.517 26.36 578.69 26.488 579.885 26.744L 579.885 14.584ZM 577.772 36.6C 575.383 36.6 574.189 38.7547 574.189 43.064C 574.189 45.24 574.53 46.8187 575.212 47.8C 575.895 48.7387 576.642 49.208 577.452 49.208C 578.306 49.208 579.117 48.8453 579.885 48.12L 579.885 37.24C 579.159 36.8133 578.455 36.6 577.772 36.6ZM 16.64 143.648C 16.64 143.947 14.8053 144.096 11.136 144.096C 7.50933 144.096 5.696 143.947 5.696 143.648L 5.696 110.688L 3.52 110.688C 2.496 110.688 1.792 109.749 1.408 107.872C 1.28 107.275 1.216 106.507 1.216 105.568C 1.216 104.629 1.51467 103.52 2.112 102.24C 2.96533 100.363 4.33067 99.424 6.208 99.424C 7.44533 99.424 8.576 99.7227 9.6 100.32C 10.6667 100.875 11.392 101.408 11.776 101.92C 12.2027 102.389 12.416 102.667 12.416 102.752C 15.2747 100.533 18.368 99.424 21.696 99.424C 25.024 99.424 27.8827 100.725 30.272 103.328C 32.6613 105.888 33.856 109.877 33.856 115.296C 33.856 120.672 32.6613 124.853 30.272 127.84C 27.8827 130.784 24.8533 132.256 21.184 132.256C 19.52 132.256 18.0053 132.171 16.64 132L 16.64 143.648ZM 19.264 110.624C 18.5387 110.624 17.8347 110.859 17.152 111.328L 17.152 122.656C 17.8773 122.741 18.4533 122.784 18.88 122.784C 19.3493 122.784 19.712 122.784 19.968 122.784C 21.7173 122.613 22.592 120.373 22.592 116.064C 22.592 112.437 21.4827 110.624 19.264 110.624ZM 52.396 131.936C 52.396 132.235 50.4547 132.384 46.572 132.384C 42.6893 132.299 40.748 132.128 40.748 131.872L 40.748 110.624L 39.02 110.624C 38.3373 110.624 37.7827 110.219 37.356 109.408C 36.972 108.555 36.78 107.509 36.78 106.272C 36.78 101.664 38.1453 99.36 40.876 99.36C 42.796 99.36 44.396 99.9573 45.676 101.152C 46.956 102.304 47.596 103.627 47.596 105.12C 48.492 103.371 49.6867 101.984 51.18 100.96C 52.716 99.8933 54.2733 99.36 55.852 99.36C 58.3267 99.36 59.82 100 60.332 101.28C 60.46 101.621 60.524 102.133 60.524 102.816C 60.524 103.456 60.3107 104.629 59.884 106.336C 59.5 108.043 59.0947 109.28 58.668 110.048C 58.2413 110.816 57.9853 111.2 57.9 111.2C 57.8147 111.2 57.4093 111.051 56.684 110.752C 56.0013 110.411 55.3827 110.24 54.828 110.24C 53.2067 110.24 52.396 111.52 52.396 114.08L 52.396 131.936ZM 66.507 128.224C 63.8617 125.28 62.539 121.205 62.539 116C 62.539 110.795 63.8617 106.72 66.507 103.776C 69.195 100.832 72.8003 99.36 77.323 99.36C 81.8457 99.36 85.4297 100.832 88.075 103.776C 90.7203 106.72 92.043 110.795 92.043 116C 92.043 121.205 90.7203 125.28 88.075 128.224C 85.4297 131.168 81.8457 132.64 77.323 132.64C 72.8003 132.64 69.195 131.168 66.507 128.224ZM 77.323 110.048C 74.9337 110.048 73.739 112.011 73.739 115.936C 73.739 119.861 74.9337 121.824 77.323 121.824C 79.755 121.824 80.971 119.861 80.971 115.936C 80.971 112.011 79.755 110.048 77.323 110.048ZM 96.5675 129.76L 96.5675 100.256C 96.5675 100 98.4875 99.872 102.328 99.872C 106.21 99.872 108.151 99.9787 108.151 100.192L 108.151 134.304C 108.151 137.461 106.829 139.957 104.184 141.792C 101.581 143.669 98.3168 144.608 94.3915 144.608C 88.8875 144.608 86.1355 142.688 86.1355 138.848C 86.1355 137.568 86.3488 136.501 86.7755 135.648C 87.1595 135.691 87.6928 135.712 88.3755 135.712C 91.4902 135.712 93.6235 135.221 94.7755 134.24C 95.9702 133.259 96.5675 131.765 96.5675 129.76ZM 96.5675 96.48L 96.5675 87.264C 96.5675 86.8373 98.4875 86.624 102.328 86.624C 106.21 86.624 108.151 86.752 108.151 87.008L 108.151 96.416C 108.151 96.7147 106.21 96.864 102.328 96.864C 98.4875 96.864 96.5675 96.736 96.5675 96.48ZM 138.135 130.272C 135.447 131.851 131.99 132.64 127.767 132.64C 123.542 132.64 119.98 131.211 117.078 128.352C 114.177 125.451 112.727 121.461 112.727 116.384C 112.727 111.264 114.113 107.147 116.886 104.032C 119.703 100.917 123.244 99.36 127.51 99.36C 131.777 99.36 135.062 100.448 137.367 102.624C 139.713 104.8 140.886 107.445 140.886 110.56C 140.886 117.472 136.919 120.928 128.983 120.928L 124.566 120.928C 124.566 122.208 124.908 123.104 125.59 123.616C 126.316 124.085 127.361 124.32 128.726 124.32C 131.713 124.32 134.551 123.637 137.239 122.272C 137.281 122.229 137.473 122.528 137.815 123.168C 138.838 125.003 139.351 126.56 139.351 127.84C 139.351 129.077 138.945 129.888 138.135 130.272ZM 130.135 111.776C 130.135 109.984 129.26 109.088 127.51 109.088C 126.7 109.088 125.996 109.344 125.399 109.856C 124.844 110.325 124.566 111.029 124.566 111.968L 124.566 113.952L 128.022 113.952C 129.431 113.952 130.135 113.227 130.135 111.776ZM 155.564 116.128C 155.564 120.309 157.142 122.4 160.299 122.4C 162.347 122.4 164.054 121.995 165.42 121.184C 166.059 121.184 166.572 122.293 166.955 124.512C 167.382 126.688 167.596 128.181 167.596 128.992C 167.596 129.76 167.489 130.272 167.275 130.528C 165.014 131.936 161.921 132.64 157.995 132.64C 154.07 132.64 150.721 131.189 147.948 128.288C 145.217 125.344 143.852 121.355 143.852 116.32C 143.852 111.243 145.195 107.147 147.884 104.032C 150.614 100.917 154.219 99.36 158.699 99.36C 163.222 99.36 166.358 100.448 168.108 102.624C 168.492 103.093 168.684 103.797 168.684 104.736C 168.684 105.632 168.513 106.741 168.171 108.064C 167.403 110.795 166.401 112.373 165.163 112.8C 164.993 112.843 164.737 112.864 164.396 112.864C 164.097 112.864 163.713 112.608 163.243 112.096C 161.58 110.432 160.236 109.6 159.212 109.6C 158.23 109.6 157.377 110.112 156.651 111.136C 155.926 112.16 155.564 113.824 155.564 116.128ZM 186.913 131.616C 186.913 132.128 185.12 132.384 181.536 132.384C 177.27 132.213 175.136 131.936 175.136 131.552L 175.136 108.896L 171.872 108.896C 171.019 108.896 170.592 107.424 170.592 104.48C 170.592 103.712 170.656 102.773 170.785 101.664C 170.955 100.555 171.275 100 171.744 100L 175.136 100L 175.136 94.368C 175.136 93.5147 176.929 93.088 180.512 93.088C 184.139 93.088 185.952 93.4293 185.952 94.112L 185.952 98.208L 186.017 100L 191.456 100C 192.182 100 192.545 101.493 192.545 104.48C 192.545 107.467 192.182 108.96 191.456 108.96L 186.913 108.96L 186.913 131.616ZM 231.882 88.928C 232.393 87.648 235.06 87.008 239.882 87.008C 241.119 87.008 242.633 87.1147 244.425 87.328C 246.26 87.4987 247.178 87.6693 247.178 87.84L 236.298 109.984L 247.562 131.168C 247.689 131.381 246.772 131.595 244.81 131.808C 242.847 131.979 241.183 132.064 239.818 132.064C 234.399 132.064 231.434 131.339 230.921 129.888L 226.122 117.664L 221.77 130.272C 221.343 131.467 218.612 132.064 213.578 132.064C 212.34 132.064 210.804 131.979 208.97 131.808C 207.135 131.637 206.303 131.403 206.474 131.104L 216.458 108.96L 206.089 87.84C 205.962 87.6267 206.836 87.4347 208.714 87.264C 210.634 87.0507 212.255 86.944 213.578 86.944C 218.953 86.944 221.897 87.712 222.41 89.248L 226.826 100L 231.882 88.928ZM 274.097 89.312C 274.652 87.8187 277.382 87.072 282.289 87.072C 283.526 87.072 284.977 87.1573 286.641 87.328C 288.348 87.4987 289.137 87.712 289.009 87.968L 275.697 114.72L 275.697 130.336C 275.697 131.061 274.524 131.573 272.177 131.872C 270.982 132.043 269.809 132.128 268.657 132.128C 267.505 132.128 266.353 132.064 265.201 131.936C 262.854 131.637 261.681 131.104 261.681 130.336L 261.681 115.104L 247.921 88.096C 247.75 87.84 248.625 87.6053 250.545 87.392C 252.465 87.136 254.086 87.008 255.409 87.008C 260.657 87.008 263.537 87.776 264.049 89.312L 268.721 102.368L 274.097 89.312ZM 292.864 98.848C 292.139 98.848 291.627 97.8667 291.328 95.904C 291.2 95.0933 291.136 94.1973 291.136 93.216C 291.136 92.2347 291.243 91.2107 291.456 90.144C 291.84 88.1813 292.48 87.2 293.376 87.2L 317.056 87.2C 319.659 87.2 321.344 89.568 322.112 94.304C 322.283 95.328 322.368 96.0747 322.368 96.544L 307.392 119.264L 319.104 119.264C 319.147 119.264 319.189 119.264 319.232 119.264C 320.171 119.264 320.832 120.288 321.216 122.336C 321.387 123.317 321.472 124.341 321.472 125.408C 321.472 126.475 321.344 127.605 321.088 128.8C 320.619 130.933 319.893 132 318.912 132L 294.016 132C 293.632 132 292.928 130.72 291.904 128.16C 290.923 125.557 290.432 123.936 290.432 123.296C 290.432 122.656 290.496 122.251 290.624 122.08L 305.6 98.848L 292.864 98.848ZM 337.439 132.192C 337.439 132.491 335.412 132.64 331.359 132.64C 327.348 132.64 325.342 132.512 325.342 132.256L 325.342 120.736C 325.342 120.352 327.348 120.16 331.359 120.16C 335.412 120.16 337.439 120.267 337.439 120.48L 337.439 132.192ZM 355.614 116.384C 356.425 117.024 357.811 117.899 359.774 119.008C 361.779 120.117 363.678 120.672 365.47 120.672C 367.305 120.672 368.222 119.968 368.222 118.56C 368.222 117.92 367.966 117.365 367.454 116.896C 366.942 116.384 366.003 115.808 364.638 115.168C 363.273 114.528 362.249 114.037 361.566 113.696C 360.883 113.312 359.966 112.715 358.814 111.904C 357.705 111.051 356.851 110.176 356.254 109.28C 354.547 106.848 353.694 103.755 353.694 100C 353.694 96.2453 355.081 93.088 357.854 90.528C 360.67 87.9253 364.339 86.624 368.862 86.624C 371.934 86.624 374.771 86.9653 377.374 87.648C 379.977 88.288 381.321 89.1413 381.406 90.208C 381.406 90.336 381.406 90.464 381.406 90.592C 381.406 92.0853 380.937 93.984 379.998 96.288C 379.059 98.5493 378.398 99.808 378.014 100.064C 375.283 98.656 372.83 97.952 370.654 97.952C 368.521 97.952 367.454 98.72 367.454 100.256C 367.454 101.195 368.243 102.027 369.822 102.752C 370.163 102.923 370.654 103.157 371.294 103.456C 371.934 103.755 372.659 104.117 373.47 104.544C 374.323 104.928 375.219 105.44 376.158 106.08C 377.139 106.677 378.185 107.488 379.294 108.512C 381.555 110.645 382.686 113.461 382.686 116.96C 382.686 121.525 381.427 125.259 378.91 128.16C 376.393 131.061 372.51 132.555 367.262 132.64C 364.702 132.64 362.377 132.427 360.286 132C 358.238 131.573 356.446 130.741 354.91 129.504C 353.374 128.267 352.606 126.773 352.606 125.024C 352.606 123.275 352.926 121.547 353.566 119.84C 354.206 118.091 354.889 116.939 355.614 116.384ZM 398.318 131.552C 398.318 131.936 396.526 132.128 392.942 132.128C 389.401 132.128 387.63 131.829 387.63 131.232L 387.63 87.392C 387.63 87.0933 388.291 86.88 389.614 86.752C 390.937 86.624 392.046 86.56 392.942 86.56C 396.526 86.56 398.318 86.944 398.318 87.712L 398.318 100.512C 400.707 99.7867 402.521 99.424 403.758 99.424C 407.001 99.424 409.561 100.299 411.438 102.048C 413.315 103.755 414.254 106.955 414.254 111.648L 414.254 131.488C 414.254 131.872 412.59 132.064 409.262 132.064C 405.507 131.936 403.63 131.723 403.63 131.424L 403.63 112.608C 403.63 110.517 402.947 109.472 401.582 109.472C 400.643 109.472 399.555 109.92 398.318 110.816L 398.318 131.552ZM 422.444 128.224C 419.799 125.28 418.477 121.205 418.477 116C 418.477 110.795 419.799 106.72 422.444 103.776C 425.132 100.832 428.738 99.36 433.26 99.36C 437.783 99.36 441.367 100.832 444.013 103.776C 446.658 106.72 447.98 110.795 447.98 116C 447.98 121.205 446.658 125.28 444.013 128.224C 441.367 131.168 437.783 132.64 433.26 132.64C 428.738 132.64 425.132 131.168 422.444 128.224ZM 433.26 110.048C 430.871 110.048 429.677 112.011 429.677 115.936C 429.677 119.861 430.871 121.824 433.26 121.824C 435.692 121.824 436.909 119.861 436.909 115.936C 436.909 112.011 435.692 110.048 433.26 110.048ZM 452.185 100.384C 452.185 99.9147 454.02 99.68 457.689 99.68C 461.358 99.68 463.193 99.9147 463.193 100.384L 463.193 119.072C 463.193 121.205 463.876 122.272 465.241 122.272C 466.265 122.272 467.417 121.824 468.697 120.928L 468.697 100.384C 468.697 99.9573 470.51 99.744 474.137 99.744C 477.764 99.744 479.577 99.9573 479.577 100.384L 479.577 121.376L 481.241 121.376C 482.692 121.376 483.417 122.763 483.417 125.536C 483.417 126.944 483.118 128.373 482.521 129.824C 481.668 131.701 480.516 132.64 479.065 132.64C 476.206 132.64 474.094 131.467 472.729 129.12L 472.665 129.184C 470.062 131.488 467.268 132.64 464.281 132.64C 460.142 132.64 457.092 131.616 455.129 129.568C 453.166 127.477 452.185 124.043 452.185 119.264L 452.185 100.384ZM 498.965 131.488C 498.965 131.872 496.79 132.064 492.438 132.064C 489.024 132.021 487.318 131.851 487.318 131.552L 487.318 87.968C 487.318 87.328 489.387 87.008 493.526 87.008C 497.152 87.136 498.965 87.3493 498.965 87.648L 498.965 131.488ZM 520.947 87.584C 520.947 86.944 522.632 86.624 526.003 86.624C 527.155 86.624 528.478 86.7093 529.971 86.88C 531.507 87.008 532.275 87.2 532.275 87.456L 532.275 121.184L 534.515 121.184C 535.582 121.184 536.286 122.144 536.627 124.064C 536.712 124.619 536.755 125.387 536.755 126.368C 536.755 127.307 536.456 128.459 535.859 129.824C 535.006 131.701 533.64 132.64 531.763 132.64C 530.355 132.64 529.096 132.363 527.987 131.808C 526.92 131.253 526.195 130.677 525.811 130.08L 525.235 129.248C 522.888 131.509 519.944 132.64 516.403 132.64C 512.862 132.64 509.832 131.168 507.315 128.224C 504.798 125.28 503.539 121.184 503.539 115.936C 503.539 110.645 504.862 106.571 507.507 103.712C 510.152 100.811 513.459 99.36 517.427 99.36C 518.579 99.36 519.752 99.488 520.947 99.744L 520.947 87.584ZM 518.835 109.6C 516.446 109.6 515.251 111.755 515.251 116.064C 515.251 118.24 515.592 119.819 516.275 120.8C 516.958 121.739 517.704 122.208 518.515 122.208C 519.368 122.208 520.179 121.845 520.947 121.12L 520.947 110.24C 520.222 109.813 519.518 109.6 518.835 109.6ZM 557.549 120.992L 557.549 98.208L 553.005 98.208C 552.28 98.208 551.768 97.2907 551.469 95.456C 551.341 94.56 551.277 93.6427 551.277 92.704C 551.277 91.7653 551.341 90.848 551.469 89.952C 551.768 88.1173 552.28 87.2 553.005 87.2L 574.509 87.2C 575.234 87.2 575.725 88.1173 575.981 89.952C 576.152 90.848 576.237 91.7653 576.237 92.704C 576.237 93.6427 576.152 94.56 575.981 95.456C 575.725 97.2907 575.234 98.208 574.509 98.208L 570.221 98.208L 570.221 120.992L 574.701 120.992C 575.426 120.992 575.938 121.909 576.237 123.744C 576.408 124.64 576.493 125.557 576.493 126.496C 576.493 127.435 576.408 128.352 576.237 129.248C 575.938 131.083 575.426 132 574.701 132L 553.133 132C 552.408 132 551.917 131.083 551.661 129.248C 551.49 128.352 551.405 127.435 551.405 126.496C 551.405 125.557 551.49 124.64 551.661 123.744C 551.917 121.909 552.408 120.992 553.133 120.992L 557.549 120.992ZM 604.281 132C 600.142 132 596.942 130.677 594.681 128.032C 592.42 125.344 591.289 121.397 591.289 116.192C 591.289 110.944 592.761 106.848 595.705 103.904C 598.692 100.917 602.638 99.424 607.545 99.424C 612.494 99.424 616.569 100.512 619.769 102.688L 619.769 134.56C 619.769 137.717 618.489 140.128 615.929 141.792C 613.369 143.499 610.084 144.352 606.073 144.352C 602.062 144.352 598.478 143.84 595.321 142.816C 594.894 141.792 594.681 140.875 594.681 140.064C 594.681 137.333 595.129 135.328 596.025 134.048C 598.884 135.285 601.934 135.904 605.177 135.904C 607.524 135.904 608.697 135.072 608.697 133.408L 608.697 131.488C 606.862 131.829 605.39 132 604.281 132ZM 607.225 109.856C 604.366 109.856 602.937 112.011 602.937 116.32C 602.937 119.008 603.492 120.757 604.601 121.568C 605.326 122.123 606.052 122.4 606.777 122.4C 607.502 122.4 608.142 122.336 608.697 122.208L 608.697 110.048C 608.185 109.92 607.694 109.856 607.225 109.856ZM 628.257 128.224C 625.612 125.28 624.289 121.205 624.289 116C 624.289 110.795 625.612 106.72 628.257 103.776C 630.945 100.832 634.55 99.36 639.073 99.36C 643.596 99.36 647.18 100.832 649.825 103.776C 652.47 106.72 653.793 110.795 653.793 116C 653.793 121.205 652.47 125.28 649.825 128.224C 647.18 131.168 643.596 132.64 639.073 132.64C 634.55 132.64 630.945 131.168 628.257 128.224ZM 639.073 110.048C 636.684 110.048 635.489 112.011 635.489 115.936C 635.489 119.861 636.684 121.824 639.073 121.824C 641.505 121.824 642.721 119.861 642.721 115.936C 642.721 112.011 641.505 110.048 639.073 110.048ZM 36.096 173.32C 36.096 172.936 37.2693 172.744 39.616 172.744C 44.9067 172.744 47.5093 172.915 47.424 173.256L 41.152 204.36C 41.024 205.043 38.656 205.384 34.048 205.384C 29.44 205.384 27.072 205.043 26.944 204.36L 24.32 190.024L 21.056 204.36C 20.928 205 18.4747 205.32 13.696 205.32C 8.96 205.32 6.528 204.936 6.4 204.168L 0.704 173C 0.576 172.744 2.41067 172.616 6.208 172.616C 9.96267 172.659 11.84 172.744 11.84 172.872L 14.784 194.504L 20.096 173.128C 20.1813 172.872 21.5893 172.744 24.32 172.744C 27.0507 172.744 28.4587 172.872 28.544 173.128L 33.792 194.248L 36.096 173.32ZM 62.717 204.616C 62.717 204.957 60.7543 205.128 56.829 205.128C 52.9463 205.128 51.005 204.979 51.005 204.68L 51.005 173.256C 51.005 172.957 52.9463 172.808 56.829 172.808C 60.7543 172.808 62.717 172.936 62.717 173.192L 62.717 204.616ZM 62.717 169.416C 62.717 169.715 60.7543 169.864 56.829 169.864C 52.9463 169.864 51.005 169.736 51.005 169.48L 51.005 160.264C 51.005 159.837 52.9463 159.624 56.829 159.624C 60.7543 159.624 62.717 159.752 62.717 160.008L 62.717 169.416ZM 83.225 204.616C 83.225 205.128 81.433 205.384 77.849 205.384C 73.5823 205.213 71.449 204.936 71.449 204.552L 71.449 181.896L 68.185 181.896C 67.3317 181.896 66.905 180.424 66.905 177.48C 66.905 176.712 66.969 175.773 67.097 174.664C 67.2677 173.555 67.5877 173 68.057 173L 71.449 173L 71.449 167.368C 71.449 166.515 73.241 166.088 76.825 166.088C 80.4517 166.088 82.265 166.429 82.265 167.112L 82.265 171.208L 82.329 173L 87.769 173C 88.4943 173 88.857 174.493 88.857 177.48C 88.857 180.467 88.4943 181.96 87.769 181.96L 83.225 181.96L 83.225 204.616ZM 102.755 204.552C 102.755 204.936 100.964 205.128 97.3795 205.128C 93.8382 205.128 92.0675 204.829 92.0675 204.232L 92.0675 160.392C 92.0675 160.093 92.7288 159.88 94.0515 159.752C 95.3742 159.624 96.4835 159.56 97.3795 159.56C 100.964 159.56 102.755 159.944 102.755 160.712L 102.755 173.512C 105.145 172.787 106.958 172.424 108.195 172.424C 111.438 172.424 113.998 173.299 115.875 175.048C 117.753 176.755 118.691 179.955 118.691 184.648L 118.691 204.488C 118.691 204.872 117.028 205.064 113.699 205.064C 109.945 204.936 108.067 204.723 108.067 204.424L 108.067 185.608C 108.067 183.517 107.385 182.472 106.02 182.472C 105.081 182.472 103.993 182.92 102.755 183.816L 102.755 204.552ZM 138.944 201.224C 136.299 198.28 134.977 194.205 134.977 189C 134.977 183.795 136.299 179.72 138.944 176.776C 141.632 173.832 145.238 172.36 149.76 172.36C 154.283 172.36 157.867 173.832 160.513 176.776C 163.158 179.72 164.48 183.795 164.48 189C 164.48 194.205 163.158 198.28 160.513 201.224C 157.867 204.168 154.283 205.64 149.76 205.64C 145.238 205.64 141.632 204.168 138.944 201.224ZM 149.76 183.048C 147.371 183.048 146.177 185.011 146.177 188.936C 146.177 192.861 147.371 194.824 149.76 194.824C 152.192 194.824 153.409 192.861 153.409 188.936C 153.409 185.011 152.192 183.048 149.76 183.048ZM 182.765 216.648C 182.765 216.947 180.93 217.096 177.261 217.096C 173.634 217.096 171.821 216.947 171.821 216.648L 171.821 183.688L 169.645 183.688C 168.621 183.688 167.917 182.749 167.533 180.872C 167.405 180.275 167.341 179.507 167.341 178.568C 167.341 177.629 167.64 176.52 168.237 175.24C 169.09 173.363 170.456 172.424 172.333 172.424C 173.57 172.424 174.701 172.723 175.725 173.32C 176.792 173.875 177.517 174.408 177.901 174.92C 178.328 175.389 178.541 175.667 178.541 175.752C 181.4 173.533 184.493 172.424 187.821 172.424C 191.149 172.424 194.008 173.725 196.397 176.328C 198.786 178.888 199.981 182.877 199.981 188.296C 199.981 193.672 198.786 197.853 196.397 200.84C 194.008 203.784 190.978 205.256 187.309 205.256C 185.645 205.256 184.13 205.171 182.765 205L 182.765 216.648ZM 185.389 183.624C 184.664 183.624 183.96 183.859 183.277 184.328L 183.277 195.656C 184.002 195.741 184.578 195.784 185.005 195.784C 185.474 195.784 185.837 195.784 186.093 195.784C 187.842 195.613 188.717 193.373 188.717 189.064C 188.717 185.437 187.608 183.624 185.389 183.624ZM 219.225 204.616C 219.225 205.128 217.433 205.384 213.849 205.384C 209.582 205.213 207.449 204.936 207.449 204.552L 207.449 181.896L 204.185 181.896C 203.332 181.896 202.905 180.424 202.905 177.48C 202.905 176.712 202.969 175.773 203.097 174.664C 203.268 173.555 203.588 173 204.057 173L 207.449 173L 207.449 167.368C 207.449 166.515 209.241 166.088 212.825 166.088C 216.452 166.088 218.265 166.429 218.265 167.112L 218.265 171.208L 218.329 173L 223.769 173C 224.494 173 224.857 174.493 224.857 177.48C 224.857 180.467 224.494 181.96 223.769 181.96L 219.225 181.96L 219.225 204.616ZM 239.78 204.616C 239.78 204.957 237.817 205.128 233.892 205.128C 230.009 205.128 228.068 204.979 228.068 204.68L 228.068 173.256C 228.068 172.957 230.009 172.808 233.892 172.808C 237.817 172.808 239.78 172.936 239.78 173.192L 239.78 204.616ZM 239.78 169.416C 239.78 169.715 237.817 169.864 233.892 169.864C 230.009 169.864 228.068 169.736 228.068 169.48L 228.068 160.264C 228.068 159.837 230.009 159.624 233.892 159.624C 237.817 159.624 239.78 159.752 239.78 160.008L 239.78 169.416ZM 248.319 201.224C 245.674 198.28 244.352 194.205 244.352 189C 244.352 183.795 245.674 179.72 248.319 176.776C 251.007 173.832 254.613 172.36 259.135 172.36C 263.658 172.36 267.242 173.832 269.888 176.776C 272.533 179.72 273.855 183.795 273.855 189C 273.855 194.205 272.533 198.28 269.888 201.224C 267.242 204.168 263.658 205.64 259.135 205.64C 254.613 205.64 251.007 204.168 248.319 201.224ZM 259.135 183.048C 256.746 183.048 255.552 185.011 255.552 188.936C 255.552 192.861 256.746 194.824 259.135 194.824C 261.567 194.824 262.784 192.861 262.784 188.936C 262.784 185.011 261.567 183.048 259.135 183.048ZM 291.756 204.616C 291.756 204.915 290.22 205.064 287.148 205.064C 282.881 204.936 280.748 204.701 280.748 204.36L 280.748 183.624L 279.084 183.624C 277.975 183.624 277.249 182.685 276.908 180.808C 276.823 180.253 276.78 179.699 276.78 179.144C 276.78 177.821 277.036 176.499 277.548 175.176C 278.316 173.299 279.511 172.36 281.132 172.36C 282.753 172.36 284.204 172.744 285.484 173.512C 286.764 174.28 287.617 175.048 288.044 175.816C 290.732 173.512 293.932 172.36 297.644 172.36C 301.356 172.36 304.044 173.363 305.708 175.368C 307.372 177.373 308.204 180.659 308.204 185.224L 308.204 204.424C 308.204 204.936 306.369 205.192 302.7 205.192C 299.073 205.192 297.26 204.936 297.26 204.424L 297.26 185.928C 297.26 183.795 296.513 182.728 295.02 182.728C 294.593 182.728 293.996 182.92 293.228 183.304C 292.46 183.645 291.969 183.901 291.756 184.072L 291.756 204.616ZM 356.092 205.128C 352.381 205.128 350.375 204.531 350.076 203.336L 347.965 195.08L 337.788 195.08L 335.932 203.016C 335.677 204.339 333.628 205 329.788 205C 327.74 205 326.226 204.893 325.244 204.68C 324.263 204.424 323.772 204.232 323.772 204.104L 335.101 160.776C 335.101 160.435 338.023 160.264 343.868 160.264C 349.714 160.264 352.636 160.435 352.636 160.776L 363.708 204.168C 363.708 204.467 362.727 204.701 360.764 204.872C 358.802 205.043 357.244 205.128 356.092 205.128ZM 339.389 186.952L 346.108 186.952L 343.229 173.704L 342.844 173.704L 339.389 186.952ZM 372.43 195.528C 372.686 194.845 374.499 194.504 377.87 194.504C 381.241 194.504 382.926 194.952 382.926 195.848L 382.798 201.288L 379.086 209.992C 378.531 211.229 376.803 211.848 373.902 211.848C 371.043 211.848 369.23 211.379 368.462 210.44C 368.291 210.227 368.206 210.013 368.206 209.8C 368.206 209.629 368.227 209.459 368.27 209.288L 372.174 201.352L 372.43 195.528ZM 430.937 171.784C 430.937 176.221 429.016 179.592 425.177 181.896C 427.267 182.664 429.016 183.987 430.424 185.864C 431.833 187.741 432.536 190.408 432.536 193.864C 432.536 197.277 431.257 199.987 428.696 201.992C 426.179 203.997 422.552 205 417.816 205L 402.713 205C 401.987 205 401.39 204.765 400.92 204.296C 400.451 203.784 400.217 203.123 400.217 202.312L 400.217 161.352C 400.217 160.883 400.28 160.584 400.409 160.456C 400.579 160.285 400.899 160.2 401.369 160.2L 415.961 160.2C 425.944 160.2 430.937 164.061 430.937 171.784ZM 412.504 170.568L 412.504 178.952L 412.824 178.952C 416.92 178.952 418.969 177.587 418.969 174.856C 418.969 173.363 418.563 172.275 417.753 171.592C 416.985 170.909 415.683 170.568 413.848 170.568L 412.504 170.568ZM 412.504 186.504L 412.504 194.824L 413.656 194.824C 415.491 194.824 416.835 194.483 417.688 193.8C 418.542 193.117 418.969 192.029 418.969 190.536C 418.969 189.043 418.563 187.997 417.753 187.4C 416.985 186.803 415.683 186.504 413.848 186.504L 412.504 186.504ZM 452.007 201.224C 449.362 198.28 448.039 194.205 448.039 189C 448.039 183.795 449.362 179.72 452.007 176.776C 454.695 173.832 458.3 172.36 462.823 172.36C 467.346 172.36 470.93 173.832 473.575 176.776C 476.22 179.72 477.543 183.795 477.543 189C 477.543 194.205 476.22 198.28 473.575 201.224C 470.93 204.168 467.346 205.64 462.823 205.64C 458.3 205.64 454.695 204.168 452.007 201.224ZM 462.823 183.048C 460.434 183.048 459.239 185.011 459.239 188.936C 459.239 192.861 460.434 194.824 462.823 194.824C 465.255 194.824 466.471 192.861 466.471 188.936C 466.471 185.011 465.255 183.048 462.823 183.048ZM 496.083 204.936C 496.083 205.235 494.142 205.384 490.259 205.384C 486.377 205.299 484.436 205.128 484.436 204.872L 484.436 183.624L 482.707 183.624C 482.025 183.624 481.47 183.219 481.043 182.408C 480.66 181.555 480.467 180.509 480.467 179.272C 480.467 174.664 481.833 172.36 484.563 172.36C 486.484 172.36 488.083 172.957 489.363 174.152C 490.644 175.304 491.283 176.627 491.283 178.12C 492.179 176.371 493.374 174.984 494.868 173.96C 496.403 172.893 497.961 172.36 499.539 172.36C 502.014 172.36 503.507 173 504.02 174.28C 504.147 174.621 504.212 175.133 504.212 175.816C 504.212 176.456 503.998 177.629 503.572 179.336C 503.188 181.043 502.782 182.28 502.355 183.048C 501.929 183.816 501.673 184.2 501.587 184.2C 501.502 184.2 501.097 184.051 500.372 183.752C 499.689 183.411 499.07 183.24 498.515 183.24C 496.894 183.24 496.083 184.52 496.083 187.08L 496.083 204.936ZM 538.129 159.624C 541.244 159.624 543.974 160.072 546.321 160.968C 548.71 161.821 549.905 162.995 549.905 164.488C 549.905 165.981 549.329 167.837 548.177 170.056C 547.068 172.232 546.129 173.32 545.361 173.32C 545.148 173.32 544.892 173.213 544.593 173C 544.337 172.744 543.697 172.488 542.673 172.232C 541.692 171.933 540.838 171.784 540.113 171.784C 537.638 171.784 535.633 172.659 534.097 174.408C 532.604 176.157 531.857 178.845 531.857 182.472C 531.857 186.056 532.625 188.723 534.161 190.472C 535.74 192.221 537.724 193.096 540.113 193.096C 541.094 193.096 542.182 192.968 543.377 192.712C 544.614 192.413 545.489 192.008 546.001 191.496C 546.086 191.411 546.257 191.368 546.513 191.368C 546.769 191.368 547.238 191.859 547.921 192.84C 548.646 193.779 549.308 195.037 549.905 196.616C 550.502 198.152 550.801 199.347 550.801 200.2C 550.801 201.864 549.521 203.187 546.961 204.168C 544.401 205.149 541.372 205.64 537.873 205.64C 532.241 205.64 527.612 203.656 523.985 199.688C 520.358 195.72 518.545 190.131 518.545 182.92C 518.545 175.667 520.401 169.971 524.113 165.832C 527.868 161.693 532.54 159.624 538.129 159.624ZM 567.028 192.328C 563.657 192.328 561.972 191.923 561.972 191.112L 561.972 188.68C 561.972 186.76 563.572 184.307 566.772 181.32C 567.967 180.211 569.055 178.952 570.036 177.544C 571.06 176.136 571.572 174.856 571.572 173.704C 571.572 171.571 570.335 170.504 567.86 170.504C 565.428 170.504 562.975 171.315 560.5 172.936C 558.879 171.315 557.748 169.48 557.108 167.432C 556.852 166.749 556.724 166.152 556.724 165.64C 556.724 165.085 556.831 164.573 557.044 164.104C 557.385 162.995 558.964 161.949 561.78 160.968C 564.639 159.987 567.647 159.496 570.804 159.496C 575.583 159.496 579.167 160.52 581.556 162.568C 583.945 164.616 585.14 167.411 585.14 170.952C 585.14 172.573 584.735 174.173 583.924 175.752C 583.156 177.288 582.196 178.653 581.044 179.848C 579.935 181 578.825 182.088 577.716 183.112C 575.028 185.672 573.684 187.613 573.684 188.936L 573.684 190.856C 573.684 191.368 572.895 191.752 571.316 192.008C 569.737 192.221 568.308 192.328 567.028 192.328ZM 573.3 205.256C 573.3 205.512 571.529 205.64 567.988 205.64C 564.489 205.64 562.74 205.533 562.74 205.32L 562.74 195.272C 562.74 194.931 564.489 194.76 567.988 194.76C 571.529 194.76 573.3 194.867 573.3 195.08L 573.3 205.256Z"/>
<path id="path4_fill" d="M 10.392 22L 2.424 22C 1.864 22 1.472 21.456 1.248 20.368C 1.136 19.776 1.08 19.328 1.08 19.024C 1.08 18.72 1.128 18.52 1.224 18.424C 4.808 14.728 6.6 12.216 6.6 10.888C 6.6 10.44 6.48 10.104 6.24 9.88C 6.016 9.656 5.648 9.544 5.136 9.544C 4.64 9.544 4.136 9.64 3.624 9.832C 3.128 10.024 2.736 10.232 2.448 10.456C 1.824 9.704 1.392 8.912 1.152 8.08C 1.072 7.808 1.032 7.56 1.032 7.336C 1.032 7.096 1.072 6.872 1.152 6.664C 1.28 6.248 1.872 5.856 2.928 5.488C 4 5.12 5.128 4.936 6.312 4.936C 9.896 4.936 11.688 6.528 11.688 9.712C 11.688 11.12 11.208 12.552 10.248 14.008C 9.288 15.448 8.168 16.696 6.888 17.752L 11.736 17.56C 11.816 18.408 11.856 19.144 11.856 19.768C 11.856 20.392 11.728 20.92 11.472 21.352C 11.216 21.784 10.856 22 10.392 22ZM 22.8574 9.808C 22.2174 9.456 21.4734 9.28 20.6254 9.28C 19.1374 9.28 18.2894 10.24 18.0814 12.16C 18.9134 11.92 19.8014 11.8 20.7454 11.8C 22.3614 11.8 23.5454 12.224 24.2974 13.072C 25.0654 13.904 25.4494 15.048 25.4494 16.504C 25.4494 18.264 24.9054 19.664 23.8174 20.704C 22.7294 21.728 21.2574 22.24 19.4014 22.24C 17.5454 22.24 16.0894 21.568 15.0334 20.224C 13.9774 18.864 13.4494 16.936 13.4494 14.44C 13.4494 11.528 14.1054 9.224 15.4174 7.528C 16.7454 5.816 18.4654 4.96 20.5774 4.96C 22.9774 4.96 24.1774 5.448 24.1774 6.424C 24.1774 7.128 23.9534 7.88 23.5054 8.68C 23.3454 9.032 23.1294 9.408 22.8574 9.808ZM 21.2974 16.528C 21.2974 16.032 21.1454 15.632 20.8414 15.328C 20.5374 15.008 20.0734 14.848 19.4494 14.848C 18.8414 14.848 18.3774 14.96 18.0574 15.184C 18.0414 15.392 18.0334 15.624 18.0334 15.88C 18.0334 16.136 18.0574 16.456 18.1054 16.84C 18.1694 17.208 18.3294 17.576 18.5854 17.944C 18.8574 18.296 19.2094 18.472 19.6414 18.472C 20.7454 18.472 21.2974 17.824 21.2974 16.528ZM 42.8895 21.88C 42.8895 21.992 42.2015 22.048 40.8255 22.048C 39.4655 22.048 38.7855 21.976 38.7855 21.832L 38.7855 14.848C 38.7855 14.048 38.5215 13.648 37.9935 13.648C 37.7215 13.648 37.3615 13.824 36.9135 14.176L 36.9135 21.856C 36.9135 22.016 36.2255 22.096 34.8495 22.096C 33.4895 22.096 32.8095 22.008 32.8095 21.832L 32.8095 13.984L 32.2095 13.984C 31.6815 13.984 31.4175 13.432 31.4175 12.328C 31.4175 11.832 31.5135 11.328 31.7055 10.816C 31.9615 10.112 32.3775 9.76 32.9535 9.76C 33.5295 9.76 34.0815 9.912 34.6095 10.216C 35.1535 10.52 35.4815 10.808 35.5935 11.08C 36.5855 10.2 37.6815 9.76 38.8815 9.76C 40.0975 9.76 41.0735 10.136 41.8095 10.888C 42.6735 10.136 43.7135 9.76 44.9295 9.76C 47.5695 9.76 48.8895 11.368 48.8895 14.584L 48.8895 21.88C 48.8895 21.992 48.2015 22.048 46.8255 22.048C 45.4655 22.048 44.7855 21.976 44.7855 21.832L 44.7855 14.848C 44.7855 14.048 44.5215 13.648 43.9935 13.648C 43.7055 13.648 43.3375 13.824 42.8895 14.176L 42.8895 21.88Z"/>
<path id="path5_fill" fill-rule="evenodd" d="M 20.8023 1.31824C 16.1378 -1.37936 10.1357 0.195379 7.39634 4.83552L 1.35036 15.0766C -1.38904 19.7168 0.171596 25.6651 4.83619 28.3626C 9.50065 31.0601 15.5028 29.4853 18.2421 24.8452L 24.2882 14.6041C 27.0275 9.964 25.4668 4.01569 20.8023 1.31824ZM 17.9978 8.86059C 19.5867 8.86048 20.8748 7.58568 20.8749 6.01303C 20.8749 4.44037 19.5868 3.16549 17.9978 3.1655C 16.4088 3.16549 15.1207 4.4404 15.1207 6.01306C 15.1207 7.58571 16.4089 8.86058 17.9978 8.86059Z"/>
<path id="path6_stroke_2x" d="M 7.39634 4.83552L 6.53521 4.32713L 6.53521 4.32714L 7.39634 4.83552ZM 20.8023 1.31824L 20.3016 2.1839L 20.3016 2.18391L 20.8023 1.31824ZM 1.35036 15.0766L 2.21149 15.585L 2.21149 15.585L 1.35036 15.0766ZM 4.83619 28.3626L 4.33557 29.2283L 4.33557 29.2283L 4.83619 28.3626ZM 18.2421 24.8452L 17.381 24.3368L 17.3809 24.3369L 18.2421 24.8452ZM 24.2882 14.6041L 25.1493 15.1125L 25.1493 15.1125L 24.2882 14.6041ZM 17.9978 8.86059L 17.9978 9.86059L 17.9979 9.86059L 17.9978 8.86059ZM 17.9978 3.1655L 17.9977 4.1655L 17.9978 4.1655L 17.9978 3.1655ZM 8.25747 5.3439C 10.7179 1.17633 16.1122 -0.238953 20.3016 2.1839L 21.3029 0.45258C 16.1633 -2.51976 9.55359 -0.785569 6.53521 4.32713L 8.25747 5.3439ZM 2.21149 15.585L 8.25748 5.3439L 6.53521 4.32714L 0.489225 14.5682L 2.21149 15.585ZM 5.33681 27.497C 1.15336 25.0776 -0.245349 19.7465 2.21149 15.585L 0.489226 14.5682C -2.53273 19.687 -0.810164 26.2525 4.33557 29.2283L 5.33681 27.497ZM 17.3809 24.3369C 14.9207 28.5044 9.52621 29.9197 5.33681 27.497L 4.33557 29.2283C 9.47508 32.2005 16.085 30.4663 19.1032 25.3536L 17.3809 24.3369ZM 23.4271 14.0957L 17.381 24.3368L 19.1032 25.3536L 25.1493 15.1125L 23.4271 14.0957ZM 20.3016 2.18391C 24.4851 4.60312 25.8838 9.93423 23.427 14.0957L 25.1493 15.1125C 28.1711 9.99377 26.4486 3.42826 21.3029 0.452564L 20.3016 2.18391ZM 19.8749 6.01302C 19.8748 7.02365 19.0442 7.86051 17.9978 7.86059L 17.9979 9.86059C 20.1292 9.86044 21.8748 8.14771 21.8749 6.01303L 19.8749 6.01302ZM 17.9978 4.1655C 19.0443 4.16549 19.8749 5.00235 19.8749 6.01302L 21.8749 6.01303C 21.8749 3.87839 20.1293 2.16548 17.9977 2.1655L 17.9978 4.1655ZM 16.1207 6.01306C 16.1207 5.00236 16.9514 4.16549 17.9977 4.1655L 17.9978 2.1655C 15.8663 2.16548 14.1207 3.87845 14.1207 6.01305L 16.1207 6.01306ZM 17.9978 7.86059C 16.9514 7.86058 16.1207 7.02369 16.1207 6.01306L 14.1207 6.01305C 14.1207 8.14773 15.8664 9.86057 17.9978 9.86059L 17.9978 7.86059Z"/>
<path id="path7_stroke" d="M 1.00082 11.9816C 0.943002 7.80447 3.96385 3.6222 5.95646 1.59609L 4.53051 0.193712C 2.43928 2.3201 -1.06828 7.003 -0.99899 12.0093L 1.00082 11.9816ZM 5.95646 1.59609C 6.59958 0.942152 7.74394 0.8283 8.75265 1.2386C 9.23855 1.43625 9.5771 1.71552 9.74611 1.9764C 9.89257 2.20247 9.92206 2.41557 9.81372 2.67225L 11.6563 3.45003C 12.0472 2.52387 11.8952 1.61525 11.4246 0.888954C 10.9767 0.197461 10.2628 -0.306263 9.50622 -0.614003C 8.03 -1.21447 5.92931 -1.22861 4.53051 0.193712L 5.95646 1.59609ZM 9.81372 2.67225C 9.75605 2.80885 9.58759 3.06601 9.24493 3.44538C 8.90782 3.81958 8.48606 4.22305 7.9746 4.6743C 6.9453 5.58364 5.66898 6.57439 4.39943 7.511C 3.13088 8.44708 1.89755 9.30667 0.973099 9.93805C 0.512147 10.2529 0.132585 10.5078 -0.134171 10.6856C -0.266955 10.7741 -0.370112 10.8424 -0.441052 10.8893C -0.476239 10.9125 -0.502758 10.9299 -0.520924 10.9419C -0.529869 10.9477 -0.536439 10.9521 -0.540984 10.955C -0.543188 10.9565 -0.544748 10.9575 -0.545859 10.9582C -0.546381 10.9586 -0.546723 10.9588 -0.546985 10.959C -0.547099 10.959 -0.54716 10.9591 -0.547217 10.9591C -0.547241 10.9591 -0.547228 10.9591 0.000214231 11.796C 0.547656 12.6328 0.547744 12.6328 0.547868 12.6327C 0.547959 12.6326 0.548121 12.6325 0.548303 12.6324C 0.548633 12.6322 0.549178 12.6318 0.549836 12.6314C 0.551083 12.6306 0.553054 12.6293 0.555533 12.6277C 0.560355 12.6245 0.567765 12.6196 0.577273 12.6134C 0.596012 12.6011 0.624285 12.5825 0.660652 12.5585C 0.73282 12.5108 0.839814 12.44 0.975205 12.3497C 1.2448 12.17 1.63368 11.9088 2.1011 11.5896C 3.03339 10.9528 4.29653 10.0723 5.58685 9.12035C 6.87617 8.16896 8.22114 7.12385 9.29823 6.17363C 9.83996 5.6951 10.3427 5.21286 10.7291 4.78595C 11.1101 4.3642 11.4643 3.90483 11.6563 3.45003L 9.81372 2.67225Z"/>
</defs>
</svg>
